:SAMPLES-PER-SECOND 30
:FULLY-SPECIFIED
:DEGREES
403
root  56.6637 38.8475 1.11688 -178.793 -67.9322 178.575
RightUpLeg  -13.9397 -26.0614 -2.19107
RightLeg  27.9337 -0.677124 -0.630405
RightFoot  -14.2749 0.0331177 5.04833
RightToes  2.32829e-010 0 -3.6325e-017
Spine  36.2738 -3.09679 6.81326
Spine1  5.12669 -1.04719 -1.33291
HEad  -6.59359 11.9332 -14.8774
LeftShoulder1  11.7419 -17.8204 -48.0592
LeftArm  -5.00422 0.48884 -9.3208
LeftForeArm  -5.59945 -59.2209 -19.8311
LeftHand  -0.244104 0.0205437 5.32207
RightShoulder  6.30992 11.8492 35.1296
RightArm  -7.26902 0.215095 20.9353
RightForeArm  11.207 71.813 37.4826
RightHand  -0.707198 -11.2002 12.3153
LeftUpLeg  -31.0782 35.7515 -7.31506
LeftLeg  24.4802 5.91636 3.28188
LeftFoot  1.13681 -0.249982 2.22536
LeftToes  1.42787e-010 7.94111e-011 2.6399e-011
404
root  56.3501 39.0421 1.07137 -179.663 -68.6569 -179.531
RightUpLeg  -13.2004 -27.2664 -1.36441
RightLeg  25.5272 -0.346342 -0.40879
RightFoot  -13.0607 -0.0226714 4.36998
RightToes  2.32829e-010 0 -3.6325e-017
Spine  35.2758 -3.21976 7.37804
Spine1  5.61559 -0.774474 -2.24952
HEad  -5.71082 11.628 -14.2705
LeftShoulder1  11.7384 -17.6257 -48.4936
LeftArm  -5.90425 -0.115608 -10.238
LeftForeArm  -6.34906 -56.1163 -17.4949
LeftHand  -0.244104 0.0205437 5.32207
RightShoulder  6.30339 11.8351 35.1248
RightArm  -6.20973 1.44904 21.8954
RightForeArm  5.39448 70.1474 34.0047
RightHand  -0.888712 -13.1985 11.6471
LeftUpLeg  -28.6342 36.6019 -7.81184
LeftLeg  20.1409 5.26055 2.51604
LeftFoot  1.01351 -0.337506 3.05389
LeftToes  1.42787e-010 7.94111e-011 2.6399e-011
405
root  56.0519 39.2002 1.05526 179.941 -69.3243 -177.937
RightUpLeg  -13.1292 -27.6893 -0.504739
RightLeg  23.729 -1.071 -0.741224
RightFoot  -11.8083 -0.0650916 3.73921
RightToes  2.32829e-010 0 -3.6325e-017
Spine  34.5925 -3.18916 7.42297
Spine1  6.04648 -0.492071 -2.96213
HEad  -4.9823 11.358 -13.6433
LeftShoulder1  11.7078 -17.5205 -48.6109
LeftArm  -6.43692 -0.619524 -11.0113
LeftForeArm  -7.46804 -53.2439 -15.7219
LeftHand  -0.244104 0.0205437 5.32207
RightShoulder  6.34076 11.9106 35.1651
RightArm  -4.97052 3.1326 22.5267
RightForeArm  -0.132545 68.2667 30.7824
RightHand  -0.89504 -15.1169 9.30486
LeftUpLeg  -25.9435 34.8649 -7.10131
LeftLeg  15.1678 6.82579 0.952629
LeftFoot  1.9973 -0.645902 5.39016
LeftToes  1.42787e-010 7.94111e-011 2.6399e-011
406
root  55.81 39.3156 1.03359 -178.886 -70.4424 -177.903
RightUpLeg  -13.7739 -27.7956 -0.108012
RightLeg  22.9033 -2.08838 -1.19244
RightFoot  -10.91 -0.0868746 3.40021
RightToes  2.32829e-010 0 -3.6325e-017
Spine  34.5516 -2.94631 6.25618
Spine1  6.10833 -0.593285 -2.7212
HEad  -4.79252 11.1776 -12.9831
LeftShoulder1  11.5756 -17.501 -48.1009
LeftArm  -6.48987 -1.2958 -11.9982
LeftForeArm  -8.33611 -50.6865 -14.3591
LeftHand  -0.244104 0.0205437 5.32207
RightShoulder  6.35099 12.0404 34.8914
RightArm  -3.73216 5.34954 23.4579
RightForeArm  -6.92548 65.8512 27.4996
RightHand  -0.606564 -16.2648 5.26327
LeftUpLeg  -22.6448 25.2028 -2.84554
LeftLeg  11.6912 16.3389 -1.58786
LeftFoot  3.42425 -1.02796 7.77233
LeftToes  1.42787e-010 7.94111e-011 2.6399e-011
407
root  55.6291 39.3729 1.01703 -175.982 -72.0868 -179.485
RightUpLeg  -15.6372 -28.1616 -0.0854467
RightLeg  23.813 -2.83785 -1.59527
RightFoot  -10.1603 -0.104 3.41875
RightToes  2.32829e-010 0 -3.6325e-017
Spine  34.9398 -2.67038 4.73494
Spine1  6.07978 -0.916561 -2.08827
HEad  -5.46168 10.5682 -12.3084
LeftShoulder1  11.4025 -17.593 -47.1586
LeftArm  -6.02255 -3.10756 -13.1945
LeftForeArm  -9.1734 -47.7732 -12.9974
LeftHand  -0.244104 0.0205437 5.32207
RightShoulder  6.29619 12.1346 34.3017
RightArm  -3.22166 7.82587 24.6575
RightForeArm  -14.6215 62.9964 24.4455
RightHand  -0.244684 -16.2668 1.58247
LeftUpLeg  -22.588 19.3942 -1.92948
LeftLeg  9.87012 20.8937 -2.9944
LeftFoot  4.38792 -1.16136 8.20666
LeftToes  1.42787e-010 7.94111e-011 2.6399e-011
408
root  55.5051 39.375 1.0729 -173.258 -73.4764 179.211
RightUpLeg  -19.0206 -28.097 0.100263
RightLeg  27.1305 -4.35549 -2.67523
RightFoot  -8.64093 -0.157714 4.10312
RightToes  2.32829e-010 0 -3.6325e-017
Spine  35.7406 -2.58648 4.36577
Spine1  6.22251 -0.818349 -2.42514
HEad  -6.68306 9.27623 -11.6713
LeftShoulder1  11.3871 -17.9222 -46.3473
LeftArm  -5.04768 -6.36726 -14.122
LeftForeArm  -10.8942 -43.9357 -11.4783
LeftHand  -0.244104 0.0205437 5.32207
RightShoulder  6.2155 12.1634 33.7178
RightArm  -3.26215 10.5842 25.3495
RightForeArm  -20.8319 59.74 21.543
RightHand  -0.0993254 -15.3881 0.175775
LeftUpLeg  -23.3781 16.727 -1.92379
LeftLeg  8.62173 22.3298 -4.16698
LeftFoot  4.88772 -1.10668 7.54082
LeftToes  1.42787e-010 7.94111e-011 2.6399e-011
409
root  55.4587 39.3398 1.22014 -172.362 -74.0597 179.554
RightUpLeg  -23.3938 -26.7942 0.535663
RightLeg  32.2109 -6.44126 -4.60467
RightFoot  -5.8306 -0.295477 5.28905
RightToes  2.32829e-010 0 -3.6325e-017
Spine  37.2971 -2.674 4.92724
Spine1  6.45143 -0.217928 -3.74167
HEad  -8.13903 7.91688 -11.2238
LeftShoulder1  11.5453 -18.4248 -45.8948
LeftArm  -4.06117 -10.2387 -14.542
LeftForeArm  -13.0692 -39.7953 -10.0853
LeftHand  -0.244104 0.0205437 5.32207
RightShoulder  6.14925 12.222 33.1517
RightArm  -2.50008 14.4469 25.2888
RightForeArm  -24.8368 55.4104 18.3379
RightHand  -0.108986 -13.8501 0.443492
LeftUpLeg  -23.9311 14.2231 -1.07624
LeftLeg  7.3226 24.4708 -5.62345
LeftFoot  5.3595 -1.16243 7.68192
LeftToes  1.42787e-010 7.94111e-011 2.6399e-011
410
root  55.4922 39.2719 1.37727 -172.276 -74.3351 -179.544
RightUpLeg  -27.8611 -24.8987 1.04323
RightLeg  36.9554 -6.75691 -5.66327
RightFoot  -3.05818 -0.431047 5.70217
RightToes  2.32829e-010 0 -3.6325e-017
Spine  39.5843 -2.7605 5.05382
Spine1  6.66197 0.196976 -4.5766
HEad  -10.085 7.1182 -11.0353
LeftShoulder1  11.6588 -18.8267 -45.4935
LeftArm  -3.78903 -14.149 -14.7227
LeftForeArm  -14.6395 -36.1043 -8.98511
LeftHand  -0.244104 0.0205437 5.32207
RightShoulder  6.11607 12.4527 32.3784
RightArm  -0.136386 20.1439 24.9907
RightForeArm  -28.1646 49.3513 14.8888
RightHand  -0.115995 -11.477 0.976921
LeftUpLeg  -24.7921 12.2791 -0.25547
LeftLeg  6.73307 26.4067 -6.60044
LeftFoot  5.75405 -1.32633 8.57356
LeftToes  1.42787e-010 7.94111e-011 2.6399e-011
411
root  55.5757 39.2141 1.45994 -171.693 -75.107 -179.024
RightUpLeg  -31.7711 -23.4015 1.85799
RightLeg  39.0582 -5.13955 -4.74205
RightFoot  -2.56611 -0.386284 4.75746
RightToes  2.32829e-010 0 -3.6325e-017
Spine  42.144 -2.84995 4.71335
Spine1  6.9927 0.137363 -4.45387
HEad  -12.7842 6.47991 -10.8354
LeftShoulder1  11.6396 -19.1317 -44.7738
LeftArm  -4.31323 -18.6089 -15.0219
LeftForeArm  -15.7134 -32.4659 -7.99296
LeftHand  -0.244104 0.0205437 5.32207
RightShoulder  6.15434 12.9095 31.5373
RightArm  2.89707 26.9838 24.6093
RightForeArm  -31.9937 42.095 11.841
RightHand  -0.0922295 -8.59309 1.57414
LeftUpLeg  -26.0961 11.621 -0.285782
LeftLeg  6.3653 26.4752 -7.1063
LeftFoot  6.11426 -1.41913 8.98257
LeftToes  1.42787e-010 7.94111e-011 2.6399e-011
412
root  55.6809 39.1793 1.46969 -171.721 -76.3113 -177.462
RightUpLeg  -34.8488 -22.1869 3.32958
RightLeg  37.6555 -4.25347 -3.77544
RightFoot  -4.8227 -0.280187 4.44041
RightToes  2.32829e-010 0 -3.6325e-017
Spine  44.6283 -3.06169 5.1331
Spine1  7.47216 0.205691 -4.43714
HEad  -15.9359 5.17304 -10.2712
LeftShoulder1  11.6548 -19.7004 -43.674
LeftArm  -4.95467 -24.0739 -15.4735
LeftForeArm  -17.0626 -28.2766 -6.94514
LeftHand  -0.244104 0.0205437 5.32207
RightShoulder  6.26858 13.5029 30.8896
RightArm  4.88334 33.3695 23.6817
RightForeArm  -35.6618 34.9077 9.53794
RightHand  -0.0424731 -5.77901 2.5072
LeftUpLeg  -27.7784 11.6903 -0.547542
LeftLeg  5.79467 25.2951 -7.48873
LeftFoot  6.4889 -1.3977 8.64061
LeftToes  1.42787e-010 7.94111e-011 2.6399e-011
413
root  55.8008 39.1203 1.42891 -172.775 -77.4498 -174.553
RightUpLeg  -37.0619 -20.7561 5.14406
RightLeg  33.041 -5.20428 -3.8654
RightFoot  -7.42365 -0.26285 6.13529
RightToes  2.32829e-010 0 -3.6325e-017
Spine  47.0866 -3.35853 6.26252
Spine1  7.92656 0.794467 -5.16484
HEad  -19.1496 3.2222 -9.34888
LeftShoulder1  11.7818 -20.675 -42.2716
LeftArm  -5.59257 -29.9891 -15.7556
LeftForeArm  -18.414 -23.9712 -6.10489
LeftHand  -0.244104 0.0205437 5.32207
RightShoulder  6.35461 14.0687 30.1789
RightArm  5.2575 38.6227 22.2218
RightForeArm  -38.1712 28.4829 7.76825
RightHand  0.0459646 -3.25919 3.61165
LeftUpLeg  -30.0241 11.809 -0.58896
LeftLeg  5.70861 24.1233 -7.60516
LeftFoot  6.84442 -1.38137 8.35332
LeftToes  1.42787e-010 7.94111e-011 2.6399e-011
